<svg xmlns="http://www.w3.org/2000/svg" width="256" height="256" viewBox="0 0 100 100"><rect width="100" height="100" rx="20" fill="#a263be"></rect><path fill="#005ea9" d="M16.52 66.14L16.52 66.14Q15.12 66.14 13.86 65.76Q12.60 65.38 11.68 64.14L11.68 64.14Q11.80 63.18 12.26 61.34Q12.72 59.50 13.40 57.16Q14.08 54.82 14.84 52.34Q15.60 49.86 16.34 47.60Q17.08 45.34 17.66 43.64Q18.24 41.94 18.52 41.18L18.52 41.18Q18.64 40.86 18.92 40.22Q19.20 39.58 19.64 38.90Q20.08 38.22 20.66 37.76Q21.24 37.30 21.92 37.30L21.92 37.30Q22.60 37.30 23.44 37.86L23.44 37.86Q22.20 40.66 20.94 44.08Q19.68 47.50 18.54 51.12Q17.40 54.74 16.46 58.16Q15.52 61.58 14.92 64.42L14.92 64.42Q15.24 64.54 15.82 64.60Q16.40 64.66 16.92 64.66L16.92 64.66Q19.52 64.66 21.88 63.40Q24.24 62.14 26.22 60.04Q28.20 57.94 29.68 55.32Q31.16 52.70 31.96 49.94Q32.76 47.18 32.76 44.66L32.76 44.66Q32.76 41.42 31.66 39.40Q30.56 37.38 28.64 36.44Q26.72 35.50 24.24 35.50L24.24 35.50Q21.64 35.50 19.56 36.44Q17.48 37.38 16.30 39Q15.12 40.62 15.12 42.70L15.12 42.70Q15.12 43.14 15.20 43.64Q15.28 44.14 15.48 44.62L15.48 44.62Q13.76 44.62 13.02 43.88Q12.28 43.14 12.28 42.06L12.28 42.06Q12.28 40.66 13.30 39.22Q14.32 37.78 16.14 36.56Q17.96 35.34 20.36 34.60Q22.76 33.86 25.56 33.86L25.56 33.86Q29.48 33.86 31.84 35.36Q34.20 36.86 35.26 39.40Q36.32 41.94 36.32 45.06L36.32 45.06Q36.32 48.50 35.22 51.64Q34.12 54.78 32.18 57.42Q30.24 60.06 27.70 62.02Q25.16 63.98 22.30 65.06Q19.44 66.14 16.52 66.14ZM38.56 56.98L38.56 56.98Q38.84 56.10 39.68 55.58Q40.52 55.06 41.56 54.82Q42.60 54.58 43.52 54.52Q44.44 54.46 44.92 54.46L44.92 54.46Q45.44 54.46 46.64 54.50Q47.84 54.54 49.24 54.58Q50.64 54.62 51.84 54.66Q53.04 54.70 53.56 54.74L53.56 54.74Q53.16 55.66 51.74 56.28Q50.32 56.90 48.68 56.90L48.68 56.90Q47.84 56.90 46.52 56.78Q45.20 56.66 43.68 56.66L43.68 56.66Q42.68 56.66 41.60 56.72Q40.52 56.78 39.70 56.86Q38.88 56.94 38.56 56.98ZM56.44 66.14L56.44 66.14Q56.64 65.54 57.62 63.40Q58.60 61.26 60.26 57.68Q61.92 54.10 64.20 49.18Q66.48 44.26 69.28 38.10L69.28 38.10Q69.44 37.78 69.54 37.42Q69.64 37.06 69.64 36.78L69.64 36.78Q69.64 36.38 69.40 36.14Q69.16 35.90 68.48 35.90L68.48 35.90Q66.80 35.90 65.74 36.92Q64.68 37.94 64.18 39.42Q63.68 40.90 63.68 42.34L63.68 42.34Q63.68 42.70 63.72 43.18Q63.76 43.66 63.84 44.26L63.84 44.26Q62.88 44.26 62.26 43.68Q61.64 43.10 61.32 42.24Q61 41.38 61 40.62L61 40.62Q61 39.34 61.74 38.14Q62.48 36.94 63.68 35.96Q64.88 34.98 66.34 34.42Q67.80 33.86 69.24 33.86L69.24 33.86Q70.72 33.86 71.76 34.68Q72.80 35.50 73.36 37.64Q73.92 39.78 73.92 43.78L73.92 43.78Q73.92 46.38 73.74 49.04Q73.56 51.70 73.36 54.02Q73.16 56.34 73.16 57.98L73.16 57.98Q73.96 55.62 75.14 52.96Q76.32 50.30 77.68 47.68Q79.04 45.06 80.36 42.74Q81.68 40.42 82.74 38.68Q83.80 36.94 84.36 36.10L84.36 36.10Q84.92 35.22 85.36 34.78Q85.80 34.34 86.56 34.34L86.56 34.34Q87.12 34.34 88.32 34.78L88.32 34.78Q87.96 35.54 87.48 37.20Q87 38.86 86.44 41.06L86.44 41.06Q85.84 43.46 85.24 46.32Q84.64 49.18 84.16 52.10Q83.68 55.02 83.38 57.64Q83.08 60.26 83.08 62.26L83.08 62.26Q83.08 63.30 83.18 63.90Q83.28 64.50 83.46 64.96Q83.64 65.42 83.88 66.14L83.88 66.14Q82.16 66.14 81.26 65.62Q80.36 65.10 80.06 63.96Q79.76 62.82 79.76 60.94L79.76 60.94Q79.76 56.50 80.78 51.60Q81.80 46.70 83.16 41.50L83.16 41.50Q82.04 43.10 80.84 45.30Q79.64 47.50 78.48 49.94Q77.32 52.38 76.28 54.76Q75.24 57.14 74.44 59.16Q73.64 61.18 73.20 62.54L73.20 62.54Q72.84 62.66 72.70 62.70Q72.56 62.74 72.36 62.74L72.36 62.74Q70.96 62.74 70.58 61.04Q70.20 59.34 70.20 56.38L70.20 56.38Q70.20 54.82 70.24 53.04Q70.28 51.26 70.36 49.40Q70.44 47.54 70.48 45.70Q70.52 43.86 70.52 42.18L70.52 42.18Q70.52 41.58 70.50 40.98Q70.48 40.38 70.48 39.82L70.48 39.82Q67.44 46.90 65.34 51.92Q63.24 56.94 61.76 60.08Q60.28 63.22 59.04 64.68Q57.80 66.14 56.44 66.14Z"></path></svg>